<svg width="36" height="35" viewBox="0 0 36 35" fill="none" xmlns="http://www.w3.org/2000/svg">
<g id="round-dark-mode">
<path id="Vector" d="M16.5563 4.44791C9.99375 5.16249 4.875 10.7333 4.875 17.5C4.875 20.981 6.25781 24.3194 8.71922 26.7808C11.1806 29.2422 14.519 30.625 18 30.625C24.7521 30.625 30.3229 25.5208 31.0521 18.9583C31.1833 17.8062 29.9146 16.8875 28.8062 17.5729C27.6158 18.3328 26.2429 18.7587 24.8314 18.8061C23.4199 18.8536 22.0215 18.5207 20.7828 17.8424C19.544 17.1641 18.5102 16.1654 17.7898 14.9506C17.0693 13.7359 16.6886 12.3498 16.6875 10.9375C16.6875 9.39166 17.1396 7.93333 17.9125 6.72291C18.5687 5.74583 17.8542 4.34583 16.5563 4.44791Z" fill="#FEFCFD"/>
</g>
</svg>
