<svg width="36" height="35" viewBox="0 0 36 35" fill="none" xmlns="http://www.w3.org/2000/svg">
<g id="Group">
<path id="Vector" d="M17.9999 27.7082C18.3571 27.7082 18.7019 27.8394 18.9688 28.0767C19.2357 28.3141 19.4063 28.6411 19.4481 28.9959L19.4583 29.1665V30.6248C19.4579 30.9965 19.3155 31.354 19.0604 31.6243C18.8052 31.8946 18.4565 32.0573 18.0854 32.079C17.7143 32.1008 17.349 31.9801 17.0639 31.7415C16.7789 31.503 16.5957 31.1646 16.5518 30.7955L16.5416 30.6248V29.1665C16.5416 28.7797 16.6952 28.4088 16.9687 28.1353C17.2422 27.8618 17.6132 27.7082 17.9999 27.7082ZM27.2064 24.6603L27.3435 24.7813L28.3643 25.8021C28.6259 26.0646 28.7777 26.4167 28.789 26.7871C28.8003 27.1574 28.6702 27.5182 28.4252 27.7961C28.1801 28.074 27.8385 28.2482 27.4697 28.2833C27.1008 28.3185 26.7324 28.2119 26.4393 27.9853L26.3022 27.8642L25.2814 26.8434C25.0297 26.5922 24.8785 26.2577 24.8562 25.9028C24.8339 25.5479 24.942 25.1971 25.1603 24.9163C25.3785 24.6356 25.6918 24.4442 26.0412 24.3783C26.3906 24.3123 26.7521 24.3763 27.0576 24.5582L27.2064 24.6603ZM10.7185 24.7813C10.9696 25.0324 11.1204 25.3665 11.1427 25.7209C11.165 26.0753 11.0572 26.4257 10.8395 26.7063L10.7185 26.8434L9.69764 27.8642C9.4352 28.1258 9.08305 28.2776 8.7127 28.2889C8.34236 28.3002 7.9816 28.1701 7.70369 27.9251C7.42578 27.68 7.25157 27.3384 7.21643 26.9696C7.1813 26.6007 7.28787 26.2323 7.51451 25.9392L7.63556 25.8021L8.65639 24.7813C8.92987 24.5079 9.30073 24.3543 9.68743 24.3543C10.0741 24.3543 10.445 24.5079 10.7185 24.7813ZM6.33326 16.0415C6.70496 16.0419 7.06248 16.1842 7.33276 16.4394C7.60304 16.6946 7.76569 17.0433 7.78747 17.4144C7.80926 17.7854 7.68853 18.1508 7.44996 18.4358C7.21139 18.7209 6.87299 18.9041 6.50389 18.948L6.33326 18.9582H4.87493C4.50323 18.9578 4.14572 18.8154 3.87544 18.5603C3.60515 18.3051 3.4425 17.9564 3.42072 17.5853C3.39894 17.2142 3.51966 16.8489 3.75823 16.5638C3.9968 16.2788 4.33521 16.0956 4.70431 16.0517L4.87493 16.0415H6.33326ZM31.1249 16.0415C31.4966 16.0419 31.8541 16.1842 32.1244 16.4394C32.3947 16.6946 32.5574 17.0433 32.5791 17.4144C32.6009 17.7854 32.4802 18.1508 32.2416 18.4358C32.0031 18.7209 31.6647 18.9041 31.2956 18.948L31.1249 18.9582H29.6666C29.2949 18.9578 28.9374 18.8154 28.6671 18.5603C28.3968 18.3051 28.2342 17.9564 28.2124 17.5853C28.1906 17.2142 28.3113 16.8489 28.5499 16.5638C28.7885 16.2788 29.1269 16.0956 29.496 16.0517L29.6666 16.0415H31.1249ZM9.56056 7.01442L9.69764 7.13546L10.7185 8.1563C10.98 8.41873 11.1319 8.77089 11.1432 9.14123C11.1545 9.51157 11.0244 9.87234 10.7794 10.1502C10.5343 10.4282 10.1927 10.6024 9.82382 10.6375C9.45498 10.6726 9.08659 10.5661 8.79347 10.3394L8.65639 10.2184L7.63556 9.19755C7.38485 8.94625 7.23442 8.61213 7.21244 8.25784C7.19047 7.90355 7.29848 7.55341 7.51621 7.27306C7.73394 6.99271 8.04645 6.8014 8.39516 6.73499C8.74386 6.66858 9.10481 6.73164 9.41035 6.91234L9.56056 7.01442ZM28.3643 7.13546C28.6154 7.38658 28.7662 7.72068 28.7885 8.07509C28.8108 8.42951 28.703 8.77987 28.4853 9.06046L28.3643 9.19755L27.3435 10.2184C27.081 10.4799 26.7289 10.6318 26.3585 10.6431C25.9882 10.6544 25.6274 10.5243 25.3495 10.2793C25.0716 10.0342 24.8974 9.69257 24.8623 9.32373C24.8271 8.95488 24.9337 8.58649 25.1603 8.29338L25.2814 8.1563L26.3022 7.13546C26.5757 6.86207 26.9466 6.70848 27.3333 6.70848C27.72 6.70848 28.0908 6.86207 28.3643 7.13546ZM17.9999 2.9165C18.3571 2.91655 18.7019 3.04769 18.9688 3.28505C19.2357 3.5224 19.4063 3.84947 19.4481 4.20421L19.4583 4.37484V5.83317C19.4579 6.20487 19.3155 6.56238 19.0604 6.83267C18.8052 7.10295 18.4565 7.2656 18.0854 7.28738C17.7143 7.30916 17.349 7.18844 17.0639 6.94987C16.7789 6.7113 16.5957 6.37289 16.5518 6.0038L16.5416 5.83317V4.37484C16.5416 3.98806 16.6952 3.61713 16.9687 3.34364C17.2422 3.07015 17.6132 2.9165 17.9999 2.9165ZM17.9999 10.2082C19.4286 10.2081 20.8259 10.6277 22.0181 11.4149C23.2104 12.2022 24.1451 13.3223 24.7062 14.6362C25.2673 15.9501 25.43 17.3999 25.1742 18.8055C24.9183 20.2111 24.2552 21.5106 23.2672 22.5425C22.2791 23.5745 21.0097 24.2935 19.6165 24.6101C18.2234 24.9268 16.7679 24.8272 15.4308 24.3238C14.0938 23.8203 12.9341 22.9352 12.0958 21.7782C11.2575 20.6213 10.7776 19.2436 10.7156 17.8163L10.7083 17.4998L10.7156 17.1834C10.7971 15.3061 11.6002 13.5328 12.9573 12.2333C14.3145 10.9338 16.1209 10.2083 17.9999 10.2082Z" fill="#090909"/>
</g>
</svg>
